<svg xmlns="http://www.w3.org/2000/svg" viewBox="0 0 760 760">
    <defs>
        <style>
            .cls-1 {
                fill: #fff;
            }
        </style>
    </defs>
    <g id="Layer_2" data-name="Layer 2">
        <g id="Layer_1-2" data-name="Layer 1">
            <path class="cls-1"
                d="M660,380a282.82,282.82,0,0,1-2,33.55c0,.34-.08.67-.11,1A277.77,277.77,0,0,1,580.05,575.9c-.68.7-1.37,1.4-2.06,2.09q-7.5,7.5-15.45,14.36a278.11,278.11,0,0,1-80,48.36q-8.64,3.4-17.52,6.22a280.28,280.28,0,0,1-80,13V80c-1.67,0-3.34,0-5,0q-6.28,0-12.5.26a299.13,299.13,0,0,0-80,14.27q-6.57,2.13-13,4.55a299.47,299.47,0,0,0-80,45.14q-7.19,5.64-14,11.73a300.88,300.88,0,0,0-72.63,97.6q-3.95,8.47-7.37,17.25a297.22,297.22,0,0,0-16.92,62.75,303.29,303.29,0,0,0-1.72,80c0,.33.07.67.11,1A297.82,297.82,0,0,0,100.5,489.2c.7,1.79,1.41,3.58,2.15,5.35a300.47,300.47,0,0,0,77.85,109.5q6.81,6.08,14,11.73v96q-7.09-4-14-8.24a379.13,379.13,0,0,1-69.2-54.8q-5.53-5.54-10.8-11.26a378,378,0,0,1-70.6-109.5q-7-16.47-12.31-33.39a374.8,374.8,0,0,1-16-80c0-.33-.07-.67-.1-1Q0,396.9,0,380a381.21,381.21,0,0,1,2.81-46.45,374.65,374.65,0,0,1,18.76-80q3.83-10.83,8.33-21.48a378.07,378.07,0,0,1,70.6-109.51q5.27-5.73,10.8-11.26a380,380,0,0,1,69.2-54.8q6.9-4.28,14-8.23a381.49,381.49,0,0,1,80-33.43q6.47-1.87,13-3.5A377.3,377.3,0,0,1,367.5.21Q373.74,0,380,0c1.68,0,3.35,0,5,0a379.42,379.42,0,0,1,80,9.51V561.15a197.45,197.45,0,0,0,17.52-9.34A203.14,203.14,0,0,0,544,494.55a197.8,197.8,0,0,0,33-80c.06-.33.12-.67.17-1a203,203,0,0,0-2.6-80A198,198,0,0,0,562.54,298V167.66q8,6.85,15.45,14.35c.69.69,1.38,1.39,2.06,2.09A280.12,280.12,0,0,1,630,253.55a276.91,276.91,0,0,1,26.22,80A284,284,0,0,1,660,380Z" />
            <path class="cls-1"
                d="M760,380q0,16.89-1.45,33.55c0,.33-.06.67-.1,1a375.39,375.39,0,0,1-16,80q-5.34,16.92-12.31,33.39a377.9,377.9,0,0,1-70.06,108.9q-5.52,6-11.35,11.86a379.59,379.59,0,0,1-68.65,54.46q-8.61,5.34-17.51,10.21a380,380,0,0,1-80,32.63q-8.7,2.44-17.52,4.46A379.42,379.42,0,0,1,385,760c-1.67,0-3.34,0-5,0q-6.27,0-12.5-.21a377.3,377.3,0,0,1-80-11.13V644.43q-6.57-2.28-13-4.91a278.35,278.35,0,0,1-80-49.77Q188.09,584.08,182,578l-1.51-1.53a279.82,279.82,0,0,1-56.16-81.91H216A203.06,203.06,0,0,0,274.5,550q6.36,4,13,7.44V413.55H102q-1-8.28-1.48-16.66V363.11a281.28,281.28,0,0,1,3.31-29.56,276.91,276.91,0,0,1,26.22-80,280.41,280.41,0,0,1,50.47-70L182,182q6.09-6.09,12.49-11.76a278.1,278.1,0,0,1,80-49.76c4.29-1.76,8.62-3.39,13-4.92a279.37,279.37,0,0,1,80-15.29V253.55h-80v-51q-6.63,3.46-13,7.43A202.77,202.77,0,0,0,225,253.55a198,198,0,0,0-39.64,80H367.5V679.74q6.22.25,12.5.26c1.68,0,3.35,0,5,0a299.91,299.91,0,0,0,80-12.18q8.88-2.61,17.52-5.76a299.2,299.2,0,0,0,80-43.93q9-6.93,17.51-14.54a300.37,300.37,0,0,0,77.3-109q1.39-3.37,2.7-6.78a297.27,297.27,0,0,0,18-73.22c0-.33.08-.67.11-1a303.29,303.29,0,0,0-1.72-80,297.21,297.21,0,0,0-16.37-61.32q-3.64-9.5-7.92-18.68a300.7,300.7,0,0,0-72.08-97.1q-8.47-7.6-17.51-14.54V46.64q8.91,4.86,17.51,10.2A380,380,0,0,1,648.7,111.3q5.82,5.82,11.35,11.86a378.3,378.3,0,0,1,70.06,108.91q4.5,10.65,8.33,21.48a375.23,375.23,0,0,1,18.75,80A381.21,381.21,0,0,1,760,380Z" />
        </g>
    </g>
</svg>