<svg width="895" height="341" viewBox="0 0 895 341" fill="none" xmlns="http://www.w3.org/2000/svg">
<circle cx="440" cy="153" r="90" fill="url(#paint0_linear_121_2)"/>
<path d="M880.5 206.5C880.5 224.832 868.33 242.393 846.091 258.448C823.862 274.494 791.665 288.966 751.835 301.128C672.179 325.449 562.105 340.5 440.5 340.5C318.895 340.5 208.821 325.449 129.165 301.128C89.3346 288.966 57.1376 274.494 34.9093 258.448C12.6695 242.393 0.5 224.832 0.5 206.5C0.5 188.168 12.6695 170.607 34.9093 154.552C57.1376 138.506 89.3346 124.034 129.165 111.872C208.821 87.5507 318.895 72.5 440.5 72.5C562.105 72.5 672.179 87.5507 751.835 111.872C791.665 124.034 823.862 138.506 846.091 154.552C868.33 170.607 880.5 188.168 880.5 206.5Z" stroke="url(#paint1_linear_121_2)"/>
<path d="M826.5 206.5C826.5 224.863 815.931 242.427 796.661 258.469C777.393 274.509 749.482 288.975 714.949 301.134C645.886 325.451 550.445 340.5 445 340.5C339.555 340.5 244.114 325.451 175.051 301.134C140.518 288.975 112.607 274.509 93.3393 258.469C74.0687 242.427 63.5 224.863 63.5 206.5C63.5 188.137 74.0687 170.573 93.3393 154.531C112.607 138.491 140.518 124.025 175.051 111.866C244.114 87.5493 339.555 72.5 445 72.5C550.445 72.5 645.886 87.5493 714.949 111.866C749.482 124.025 777.393 138.491 796.661 154.531C815.931 170.573 826.5 188.137 826.5 206.5Z" stroke="url(#paint2_linear_121_2)"/>
<path d="M802.5 206.5C802.5 224.882 792.877 242.45 775.354 258.485C757.831 274.52 732.448 288.983 701.039 301.14C638.225 325.452 551.414 340.5 455.5 340.5C359.586 340.5 272.775 325.452 209.961 301.14C178.552 288.983 153.169 274.52 135.646 258.485C118.123 242.45 108.5 224.882 108.5 206.5C108.5 188.118 118.123 170.55 135.646 154.515C153.169 138.48 178.552 124.017 209.961 111.86C272.775 87.5481 359.586 72.5 455.5 72.5C551.414 72.5 638.225 87.5481 701.039 111.86C732.448 124.017 757.831 138.48 775.354 154.515C792.877 170.55 802.5 188.118 802.5 206.5Z" stroke="url(#paint3_linear_121_2)"/>
<path d="M597.5 137.5C597.5 213.114 529.275 274.5 445 274.5C360.725 274.5 292.5 213.114 292.5 137.5C292.5 61.8859 360.725 0.5 445 0.5C529.275 0.5 597.5 61.8859 597.5 137.5Z" stroke="url(#paint4_linear_121_2)"/>
<path d="M591.5 173C591.5 195.38 575.177 215.746 548.555 230.546C521.95 245.336 485.162 254.5 444.5 254.5C403.838 254.5 367.05 245.336 340.445 230.546C313.823 215.746 297.5 195.38 297.5 173C297.5 150.62 313.823 130.254 340.445 115.454C367.05 100.664 403.838 91.5 444.5 91.5C485.162 91.5 521.95 100.664 548.555 115.454C575.177 130.254 591.5 150.62 591.5 173Z" stroke="url(#paint5_linear_121_2)"/>
<path d="M853.093 160.749C853.093 159.196 851.426 157.725 848.87 156.813C849.46 153.776 849.198 151.358 848.043 150.584C847.763 150.401 847.446 150.309 847.125 150.317V151.382C847.314 151.382 847.465 151.426 847.593 151.507C848.149 151.88 848.391 153.297 848.203 155.122C848.158 155.571 848.084 156.044 847.994 156.526C847.138 156.285 846.269 156.112 845.393 156.006C844.872 155.166 844.302 154.368 843.69 153.617C845.025 152.17 846.278 151.378 847.131 151.378V150.312C846.004 150.312 844.529 151.249 843.038 152.872C841.548 151.26 840.073 150.332 838.947 150.332V151.396C839.795 151.396 841.052 152.185 842.388 153.622C841.814 154.325 841.241 155.122 840.696 156.006C839.818 156.11 838.948 156.286 838.091 156.531C838.001 156.074 837.929 155.612 837.878 155.146C837.685 153.321 837.923 151.903 838.476 151.526C838.598 151.44 838.758 151.401 838.947 151.401V150.337C838.603 150.337 838.291 150.423 838.022 150.603C836.87 151.378 836.613 153.789 837.206 156.818C834.659 157.736 833 159.201 833 160.749C833 162.301 834.667 163.772 837.223 164.683C836.633 167.722 836.895 170.139 838.05 170.912C838.316 171.094 838.628 171.18 838.971 171.18C840.098 171.18 841.572 170.244 843.063 168.62C844.554 170.234 846.028 171.16 847.155 171.16C847.478 171.168 847.797 171.076 848.08 170.893C849.231 170.12 849.489 167.708 848.895 164.679C851.435 163.767 853.093 162.296 853.093 160.749ZM847.76 157.563C847.601 158.201 847.417 158.831 847.208 159.449C846.865 158.673 846.489 157.917 846.081 157.185C846.663 157.286 847.224 157.41 847.761 157.563H847.76ZM845.885 162.65C845.578 163.274 845.249 163.883 844.898 164.474C843.669 164.601 842.433 164.602 841.204 164.479C840.499 163.305 839.882 162.062 839.361 160.763C839.882 159.462 840.495 158.214 841.196 157.034C842.425 156.907 843.66 156.905 844.889 157.028C845.229 157.596 845.562 158.203 845.881 158.844C846.192 159.469 846.475 160.103 846.733 160.744C846.472 161.392 846.189 162.028 845.885 162.65V162.65ZM847.208 162.029C847.429 162.668 847.618 163.309 847.773 163.93C847.237 164.083 846.671 164.212 846.086 164.311C846.492 163.573 846.866 162.811 847.208 162.029V162.029ZM843.055 167.125C842.674 166.666 842.293 166.156 841.916 165.596C842.285 165.616 842.661 165.63 843.042 165.63C843.428 165.63 843.808 165.621 844.181 165.596C843.813 166.156 843.432 166.666 843.055 167.125ZM840.007 164.311C839.443 164.216 838.883 164.09 838.328 163.934C838.48 163.318 838.668 162.683 838.881 162.048C839.049 162.429 839.226 162.812 839.418 163.194C839.611 163.576 839.807 163.949 840.007 164.311ZM843.034 154.372C843.415 154.831 843.796 155.342 844.173 155.901C843.804 155.882 843.428 155.867 843.047 155.867C842.661 155.867 842.281 155.877 841.908 155.901C842.276 155.342 842.657 154.831 843.034 154.372ZM840.003 157.186C839.597 157.923 839.223 158.683 838.881 159.464C838.666 158.841 838.478 158.207 838.316 157.563C838.852 157.414 839.418 157.286 840.003 157.186ZM836.297 163.165C834.847 162.445 833.909 161.498 833.909 160.749C833.909 159.999 834.847 159.048 836.297 158.332C836.649 158.155 837.034 157.997 837.431 157.85C837.665 158.785 837.972 159.76 838.352 160.758C837.993 161.698 837.69 162.665 837.444 163.652C837.055 163.512 836.672 163.349 836.297 163.165V163.165ZM838.5 169.99C837.944 169.619 837.702 168.199 837.89 166.375C837.935 165.926 838.009 165.453 838.099 164.97C838.902 165.2 839.778 165.377 840.7 165.492C841.222 166.331 841.791 167.129 842.404 167.88C841.068 169.327 839.815 170.12 838.963 170.12C838.802 170.122 838.643 170.077 838.5 169.991V169.99ZM848.216 166.351C848.408 168.176 848.17 169.594 847.617 169.971C847.495 170.057 847.335 170.095 847.146 170.095C846.298 170.095 845.041 169.307 843.705 167.869C844.316 167.121 844.881 166.325 845.397 165.487C846.275 165.382 847.145 165.206 848.002 164.962C848.097 165.444 848.169 165.907 848.216 166.351V166.351ZM849.792 163.165C849.44 163.342 849.055 163.5 848.658 163.647C848.407 162.655 848.1 161.683 847.737 160.739C848.113 159.746 848.416 158.776 848.645 157.845C849.035 157.986 849.419 158.148 849.796 158.332C851.246 159.053 852.184 159.999 852.184 160.749C852.18 161.498 851.242 162.449 849.792 163.165V163.165Z" fill="url(#paint6_linear_121_2)"/>
<path d="M843.042 162.931C843.539 162.931 844.015 162.701 844.366 162.292C844.717 161.882 844.914 161.327 844.914 160.748C844.914 160.169 844.717 159.614 844.366 159.204C844.015 158.795 843.539 158.565 843.042 158.565C842.546 158.565 842.07 158.795 841.719 159.204C841.368 159.614 841.17 160.169 841.17 160.748C841.17 161.327 841.368 161.882 841.719 162.292C842.07 162.701 842.546 162.931 843.042 162.931V162.931Z" fill="url(#paint7_linear_121_2)"/>
<path d="M782.607 119.991H772.393C771.624 119.991 771 120.719 771 121.616V133.527C771 134.424 771.624 135.152 772.393 135.152H782.607C783.376 135.152 784 134.424 784 133.527V121.616C784 120.719 783.376 119.991 782.607 119.991ZM778.075 131.815C778.075 133.29 777.332 133.964 776.249 133.964C775.271 133.964 774.706 133.375 774.415 132.661L775.411 131.96C775.602 132.356 775.776 132.691 776.197 132.691C776.598 132.691 776.853 132.509 776.853 131.795V126.952H778.075V131.815V131.815ZM780.965 133.964C779.83 133.964 779.096 133.334 778.739 132.509L779.734 131.839C779.996 132.336 780.338 132.705 780.939 132.705C781.444 132.705 781.769 132.411 781.769 132.001C781.769 131.514 781.438 131.341 780.878 131.054L780.573 130.901C779.691 130.465 779.108 129.913 779.108 128.752C779.108 127.683 779.807 126.871 780.895 126.871C781.673 126.871 782.23 127.186 782.63 128.011L781.679 128.722C781.47 128.285 781.243 128.113 780.892 128.113C780.535 128.113 780.309 128.377 780.309 128.722C780.309 129.148 780.535 129.321 781.06 129.588L781.365 129.741C782.404 130.258 782.987 130.79 782.987 131.981C782.987 133.26 782.123 133.964 780.965 133.964V133.964Z" fill="url(#paint8_linear_121_2)"/>
<path d="M886.996 224.948C886.756 224.948 886.513 224.869 886.302 224.72L884.092 223.115C883.763 222.886 883.924 222.807 884.031 222.763C884.472 222.574 884.561 222.535 885.03 222.205C885.081 222.17 885.145 222.183 885.195 222.222L886.893 223.458C886.953 223.502 887.039 223.502 887.097 223.458L893.711 218.771C893.772 218.727 893.811 218.639 893.811 218.551V209.177C893.811 209.085 893.772 209.001 893.707 208.953L887.097 204.271C887.036 204.227 886.953 204.227 886.893 204.271L880.286 208.957C880.221 209.001 880.182 209.089 880.182 209.182V218.551C880.182 218.639 880.221 218.727 880.286 218.767L882.098 220.05C883.082 220.653 883.684 219.945 883.684 219.228V209.978C883.684 209.846 883.77 209.744 883.877 209.744H884.715C884.819 209.744 884.909 209.846 884.909 209.978V219.233C884.909 220.842 884.192 221.765 882.95 221.765C882.567 221.765 882.266 221.765 881.428 221.255L879.695 220.028C879.265 219.725 879 219.158 879 218.547V209.177C879 208.571 879.265 207.999 879.695 207.696L886.302 203.009C886.721 202.718 887.276 202.718 887.691 203.009L894.305 207.7C894.735 208.003 895 208.571 895 209.182V218.551C895 219.158 894.735 219.725 894.305 220.033L887.691 224.72C887.48 224.869 887.24 224.948 886.996 224.948ZM892.336 215.711C892.336 213.957 891.369 213.491 889.338 213.161C887.283 212.827 887.075 212.655 887.075 212.066C887.075 211.578 887.251 210.927 888.773 210.927C890.13 210.927 890.631 211.288 890.839 212.413C890.857 212.519 890.936 212.598 891.025 212.598H891.885C891.938 212.598 891.988 212.572 892.024 212.523C892.06 212.475 892.078 212.409 892.074 212.343C891.942 210.404 890.893 209.503 888.773 209.503C886.885 209.503 885.761 210.479 885.761 212.119C885.761 213.895 886.882 214.387 888.69 214.607C890.857 214.867 891.025 215.258 891.025 215.781C891.025 216.687 890.431 217.074 889.038 217.074C887.286 217.074 886.903 216.533 886.774 215.465C886.76 215.35 886.681 215.267 886.585 215.267H885.729C885.621 215.267 885.539 215.372 885.539 215.5C885.539 216.867 886.144 218.498 889.041 218.498C891.132 218.494 892.336 217.478 892.336 215.711V215.711Z" fill="url(#paint9_linear_121_2)"/>
<path fill-rule="evenodd" clip-rule="evenodd" d="M769.035 290.254C767.353 290.254 766 291.9 766 293.916C766 295.142 766.501 296.231 767.27 296.896C766.873 297.242 766.552 297.692 766.331 298.209C766.111 298.727 765.997 299.297 766 299.875C766 301.101 766.501 302.189 767.27 302.854C766.873 303.201 766.552 303.65 766.331 304.168C766.111 304.685 765.997 305.256 766 305.833C766 307.85 767.353 309.496 769.035 309.496C770.717 309.496 772.071 307.85 772.071 305.833V302.737C772.602 303.254 773.272 303.537 773.965 303.538C775.647 303.537 777 301.891 777 299.875C777.003 299.297 776.889 298.727 776.669 298.209C776.448 297.692 776.127 297.242 775.73 296.896C776.127 296.549 776.448 296.099 776.669 295.582C776.889 295.064 777.003 294.494 777 293.916C777 291.9 775.647 290.254 773.965 290.254H769.035V290.254ZM767.141 293.916C767.141 292.641 767.994 291.619 769.035 291.619H770.929V296.213H769.035C767.994 296.213 767.141 295.191 767.141 293.916V293.916ZM773.965 296.212H772.071V291.618H773.965C775.006 291.618 775.859 292.641 775.859 293.916C775.859 295.191 775.006 296.212 773.965 296.212ZM767.141 299.875C767.141 298.6 767.995 297.578 769.036 297.578H770.93V302.172H769.035C767.994 302.172 767.141 301.15 767.141 299.875H767.141ZM772.071 299.875C772.071 298.6 772.924 297.578 773.965 297.578C775.007 297.578 775.86 298.599 775.86 299.875C775.86 301.15 775.007 302.172 773.965 302.172C772.924 302.172 772.071 301.15 772.071 299.875H772.071ZM767.141 305.833C767.141 304.559 767.995 303.537 769.036 303.537H770.93V305.833C770.93 307.109 770.078 308.13 769.036 308.13C767.995 308.13 767.141 307.109 767.141 305.833Z" fill="url(#paint10_linear_121_2)"/>
<path d="M837.334 222.615H828.256C827.01 222.615 826 223.793 826 225.246V235.437C826 236.89 827.01 238.068 828.256 238.068H837.334C838.58 238.068 839.591 236.89 839.591 235.437V225.246C839.591 223.793 838.58 222.615 837.334 222.615Z" fill="url(#paint11_linear_121_2)"/>
<path d="M833.144 226.68L831.449 229.944L833.263 233.41C833.275 233.434 833.278 233.463 833.272 233.49C833.269 233.501 833.263 233.504 833.254 233.505L833.244 233.504L833.231 233.504C833.224 233.504 833.217 233.504 833.208 233.506H831.9L831.875 233.506C831.804 233.503 831.753 233.492 831.722 233.431C831.601 233.156 831.48 232.882 831.358 232.607C831.248 232.363 831.136 232.12 831.021 231.879L830.97 231.773C830.832 231.487 830.697 231.2 830.564 230.912H830.555C830.433 231.197 830.307 231.481 830.177 231.762C830.046 232.046 829.917 232.328 829.789 232.607C829.662 232.888 829.531 233.166 829.397 233.442C829.376 233.498 829.34 233.51 829.29 233.512L829.27 233.512H828.021L828.015 233.513L827.997 233.514C827.988 233.515 827.982 233.513 827.98 233.495C827.976 233.469 827.981 233.443 827.993 233.421L829.753 230.05L828.039 226.669C828.021 226.641 828.018 226.618 828.03 226.6C828.037 226.591 828.045 226.584 828.054 226.58C828.064 226.575 828.074 226.573 828.085 226.574H829.37C829.398 226.572 829.426 226.577 829.452 226.59C829.474 226.604 829.493 226.624 829.507 226.648C829.616 226.932 829.738 227.215 829.872 227.499C830.004 227.78 830.139 228.06 830.277 228.339C830.413 228.613 830.539 228.893 830.656 229.179H830.665C830.784 228.893 830.907 228.609 831.034 228.328C831.158 228.052 831.286 227.773 831.417 227.493C831.546 227.217 831.672 226.939 831.795 226.659C831.802 226.633 831.815 226.609 831.832 226.59C831.854 226.576 831.879 226.571 831.905 226.574H833.099C833.11 226.571 833.121 226.572 833.132 226.577C833.142 226.582 833.151 226.591 833.157 226.602C833.162 226.614 833.165 226.627 833.163 226.64C833.162 226.653 833.157 226.665 833.149 226.675L833.145 226.68L833.144 226.68ZM835.824 233.643L835.761 233.644C835.341 233.651 834.926 233.55 834.544 233.346C834.188 233.154 833.891 232.841 833.691 232.448C833.49 232.058 833.387 231.572 833.382 230.991L833.381 230.944C833.378 230.456 833.485 229.975 833.691 229.551C833.898 229.131 834.199 228.785 834.563 228.55L834.594 228.53C834.989 228.275 835.466 228.147 836.025 228.147L836.05 228.148L836.078 228.149L836.109 228.15L836.144 228.153L836.202 228.157L836.269 228.164L836.317 228.169V226.074C836.317 226.024 836.335 226 836.372 226H837.521C837.528 225.998 837.536 225.999 837.543 226.002C837.55 226.005 837.556 226.009 837.562 226.016C837.567 226.022 837.571 226.029 837.573 226.038C837.576 226.046 837.576 226.055 837.575 226.063V232.347C837.575 232.452 837.579 232.566 837.586 232.688L837.603 232.964L837.612 233.123C837.613 233.145 837.608 233.167 837.598 233.186C837.589 233.205 837.574 233.22 837.557 233.229C837.261 233.374 836.952 233.48 836.636 233.548C836.368 233.606 836.096 233.638 835.824 233.643V233.643ZM836.317 232.326V229.423C836.268 229.408 836.218 229.397 836.167 229.391C836.105 229.384 836.042 229.38 835.98 229.381C835.759 229.378 835.54 229.436 835.342 229.551C835.148 229.663 834.984 229.831 834.863 230.04C834.743 230.245 834.68 230.513 834.676 230.844L834.676 230.88C834.672 231.111 834.704 231.342 834.772 231.56C834.827 231.736 834.914 231.895 835.027 232.028C835.135 232.15 835.266 232.241 835.41 232.294C835.562 232.351 835.72 232.38 835.879 232.379C835.965 232.379 836.044 232.375 836.117 232.368C836.175 232.363 836.232 232.352 836.289 232.335L836.317 232.326V232.326Z" fill="black"/>
<path d="M723.624 133.445C724.693 132.729 725.759 132.007 726.831 131.299C727.849 130.626 729.046 131.246 729.277 132.555C729.41 133.312 729.121 134.13 728.535 134.528C726.613 135.834 724.689 137.135 722.755 138.416C722.156 138.812 721.54 138.739 720.994 138.253C720.44 137.76 720.265 137.08 720.395 136.288C720.544 135.686 720.883 135.283 721.346 134.981C722.112 134.483 722.865 133.958 723.624 133.445" fill="url(#paint12_linear_121_2)"/>
<path d="M724.409 132.925C723.343 132.203 722.274 131.488 721.212 130.759C720.203 130.067 720.065 128.548 720.922 127.66C721.417 127.147 722.169 127.031 722.758 127.423C724.689 128.711 726.617 130.004 728.535 131.317C729.129 131.723 729.383 132.383 729.295 133.176C729.206 133.982 728.788 134.499 728.135 134.764C727.613 134.915 727.144 134.774 726.689 134.457C725.936 133.932 725.169 133.434 724.409 132.925" fill="url(#paint13_linear_121_2)"/>
<path d="M714.693 132.414C714.009 132.868 713.325 133.32 712.641 133.775C712.242 134.04 711.846 134.315 711.444 134.577C710.635 135.104 709.673 134.795 709.214 133.867C708.776 132.981 709.028 131.833 709.807 131.302C711.714 130.005 713.625 128.717 715.543 127.443C716.131 127.052 716.741 127.101 717.285 127.568C717.86 128.061 718.047 128.755 717.919 129.568C717.839 129.765 717.791 129.995 717.671 130.15C717.476 130.403 717.255 130.644 717.008 130.821C716.246 131.37 715.466 131.886 714.693 132.414" fill="url(#paint14_linear_121_2)"/>
<path d="M713.909 132.922C714.587 133.386 715.265 133.851 715.945 134.314C716.342 134.585 716.744 134.847 717.139 135.122C717.935 135.676 718.187 136.801 717.727 137.729C717.288 138.614 716.31 138.934 715.526 138.412C713.609 137.136 711.697 135.85 709.792 134.55C709.208 134.151 708.939 133.51 709.014 132.727C709.093 131.901 709.514 131.364 710.182 131.088C710.368 131.07 710.563 131.003 710.738 131.046C711.023 131.117 711.313 131.22 711.568 131.38C712.356 131.876 713.13 132.406 713.909 132.922" fill="url(#paint15_linear_121_2)"/>
<path fill-rule="evenodd" clip-rule="evenodd" d="M127 192.295C123.134 192.295 120 196.211 120 201.041C120 205.871 123.134 209.788 127 209.788C130.866 209.788 134 205.871 134 201.041C134 196.211 130.866 192.295 127 192.295ZM127.082 206.156C124.825 206.156 122.998 203.868 122.998 201.041C122.998 198.215 124.825 195.926 127.082 195.926C128.184 195.926 129.106 196.434 129.813 197.259L128.661 198.701V198.698C128.233 198.186 127.689 197.924 127.082 197.924C125.734 197.924 124.639 199.35 124.639 201.038C124.639 202.726 125.734 204.156 127.082 204.156C128.304 204.156 129.136 203.28 129.308 202.077H127.082V200.082H130.923C130.974 200.425 131.002 200.782 131.002 201.156C131.002 204.079 129.44 206.156 127.082 206.156V206.156Z" fill="url(#paint16_linear_121_2)"/>
<path d="M31.2117 260.976H33.101V261.913H32.0018V262.851H33.101V263.788H31.2117V260.976ZM33.4785 260.976H35.3685V261.791H34.2692V261.954H35.3685V263.829H33.4785V262.973H34.5778V262.81H33.4785V260.976ZM35.7467 260.976H37.6353V261.791H36.536V261.954H37.6353V263.829H35.7467V262.973H36.846V262.81H35.7467V260.976Z" fill="url(#paint17_linear_121_2)"/>
<path fill-rule="evenodd" clip-rule="evenodd" d="M34.4935 281.308L29.4784 279.685L28 265.077H41L39.5223 279.683L34.4935 281.308ZM30.9228 271.69L31.0608 273.481H36.3886L36.2102 275.804L34.4957 276.344H34.4942L32.7826 275.805L32.6728 274.377H31.1294L31.3446 277.19L34.4935 278.209L37.6474 277.19L38.0317 272.17L38.0692 271.69L38.3466 268.063H30.6462L30.7863 269.855H36.6623L36.5222 271.69H30.9228V271.69Z" fill="url(#paint18_linear_121_2)"/>
<path d="M187.501 99.6299H198.501V113.106H187.501V99.6299ZM187 113.736H199V99H187V113.736ZM194.86 104.252C194.86 104.202 194.875 104.177 194.92 104.177H195.705C195.745 104.177 195.765 104.195 195.765 104.252V109.221C195.765 109.271 195.755 109.296 195.705 109.296H194.931C194.881 109.296 194.866 109.265 194.866 109.214V104.252H194.86H194.86ZM194.805 102.823C194.805 102.652 194.859 102.489 194.955 102.369C195.05 102.248 195.18 102.18 195.315 102.18C195.45 102.18 195.58 102.248 195.676 102.369C195.771 102.489 195.825 102.652 195.825 102.823C195.83 102.91 195.82 102.997 195.795 103.079C195.771 103.16 195.733 103.234 195.683 103.295C195.634 103.356 195.574 103.403 195.509 103.433C195.444 103.462 195.374 103.473 195.305 103.465C195.238 103.47 195.17 103.457 195.107 103.427C195.044 103.396 194.986 103.349 194.939 103.288C194.892 103.227 194.855 103.154 194.832 103.074C194.809 102.993 194.8 102.908 194.806 102.823H194.805ZM192.555 106.324C192.415 105.623 192.084 104.102 191.96 103.365H191.95C191.845 104.102 191.581 105.348 191.371 106.324H192.555ZM191.165 107.345L190.77 109.234C190.76 109.284 190.745 109.297 190.695 109.297H189.961C189.911 109.297 189.901 109.278 189.911 109.202L191.331 102.941C191.365 102.77 191.382 102.595 191.381 102.418C191.381 102.374 191.396 102.355 191.421 102.355H192.471C192.506 102.355 192.521 102.368 192.531 102.418L194.121 109.213C194.131 109.263 194.121 109.295 194.081 109.295H193.251C193.211 109.295 193.186 109.283 193.176 109.241L192.766 107.346H191.166L191.165 107.345Z" fill="url(#paint19_linear_121_2)"/>
<path fill-rule="evenodd" clip-rule="evenodd" d="M82 137.567C82 137.236 82.1107 136.918 82.3077 136.684C82.5047 136.45 82.7719 136.318 83.0505 136.318H93.5224C93.6604 136.318 93.7972 136.35 93.9248 136.413C94.0524 136.475 94.1684 136.567 94.2661 136.683C94.3638 136.799 94.4413 136.937 94.4941 137.089C94.5469 137.24 94.5741 137.403 94.574 137.567V150.014C94.5742 150.178 94.5471 150.341 94.4943 150.492C94.4416 150.644 94.3642 150.782 94.2665 150.898C94.1689 151.014 94.053 151.106 93.9254 151.169C93.7978 151.232 93.661 151.264 93.5229 151.264H83.0505C82.9125 151.264 82.7759 151.232 82.6484 151.169C82.5209 151.106 82.405 151.014 82.3075 150.898C82.2099 150.782 82.1326 150.644 82.0798 150.493C82.027 150.341 81.9999 150.179 82 150.015V137.567ZM86.977 142.017H88.6797V143.033C88.9254 142.449 89.5541 141.923 90.4989 141.923C92.3101 141.923 92.7393 143.087 92.7393 145.222V149.177H90.9064V145.708C90.9064 144.492 90.6606 143.806 90.0365 143.806C89.1706 143.806 88.8105 144.546 88.8105 145.708V149.177H86.977V142.017ZM83.8335 149.084H85.667V141.923H83.8335V149.083V149.084ZM85.9294 139.587C85.9328 139.774 85.9049 139.959 85.8472 140.133C85.7895 140.307 85.7032 140.465 85.5934 140.598C85.4836 140.732 85.3525 140.838 85.2078 140.91C85.063 140.982 84.9076 141.02 84.7506 141.02C84.5935 141.02 84.4381 140.982 84.2934 140.91C84.1486 140.838 84.0175 140.732 83.9077 140.598C83.7979 140.465 83.7116 140.307 83.6539 140.133C83.5962 139.959 83.5683 139.774 83.5718 139.587C83.5785 139.221 83.7057 138.873 83.926 138.616C84.1464 138.36 84.4423 138.217 84.7506 138.217C85.0588 138.217 85.3548 138.36 85.5751 138.616C85.7954 138.873 85.9226 139.221 85.9294 139.587V139.587Z" fill="url(#paint20_linear_121_2)"/>
<path d="M140.754 270.43L142.232 272.826L149.714 270.43M132.979 289.089L137.027 284.516L134.591 281.495M140.14 270.43L137.977 272.682L141.616 272.838M131.731 270.431L132.507 272.271L136.79 272.578M134.023 279.971L137.187 273.153L128 272.577M134.391 280.402L137.38 284.111L140.676 280.379L141.698 273.425L137.682 273.186L134.391 280.402Z" fill="url(#paint21_linear_121_2)"/>
<defs>
<linearGradient id="paint0_linear_121_2" x1="440" y1="63" x2="440" y2="243" gradientUnits="userSpaceOnUse">
<stop stop-color="#301080" stop-opacity="0.6"/>
<stop offset="1" stop-color="#7840AD" stop-opacity="0.36"/>
</linearGradient>
<linearGradient id="paint1_linear_121_2" x1="440.5" y1="72" x2="440.5" y2="341" gradientUnits="userSpaceOnUse">
<stop stop-opacity="0"/>
<stop offset="0.479167" stop-color="#763CAC"/>
</linearGradient>
<linearGradient id="paint2_linear_121_2" x1="445" y1="72" x2="445" y2="341" gradientUnits="userSpaceOnUse">
<stop stop-opacity="0"/>
<stop offset="0.479167" stop-color="#763CAC"/>
</linearGradient>
<linearGradient id="paint3_linear_121_2" x1="455.5" y1="72" x2="455.5" y2="341" gradientUnits="userSpaceOnUse">
<stop stop-opacity="0"/>
<stop offset="0.479167" stop-color="#763CAC"/>
</linearGradient>
<linearGradient id="paint4_linear_121_2" x1="445" y1="0" x2="445" y2="275" gradientUnits="userSpaceOnUse">
<stop offset="0.197917" stop-opacity="0"/>
<stop offset="1" stop-color="#763CAC"/>
</linearGradient>
<linearGradient id="paint5_linear_121_2" x1="444.5" y1="91" x2="444.5" y2="255" gradientUnits="userSpaceOnUse">
<stop offset="0.197917" stop-opacity="0"/>
<stop offset="1" stop-color="#763CAC"/>
</linearGradient>
<linearGradient id="paint6_linear_121_2" x1="843.047" y1="150.312" x2="843.047" y2="171.18" gradientUnits="userSpaceOnUse">
<stop stop-color="#693B93" stop-opacity="0.53"/>
<stop offset="1" stop-color="#693B93"/>
</linearGradient>
<linearGradient id="paint7_linear_121_2" x1="843.042" y1="158.565" x2="843.042" y2="162.931" gradientUnits="userSpaceOnUse">
<stop stop-color="#693B93" stop-opacity="0.53"/>
<stop offset="1" stop-color="#693B93"/>
</linearGradient>
<linearGradient id="paint8_linear_121_2" x1="777.5" y1="119.991" x2="777.5" y2="135.152" gradientUnits="userSpaceOnUse">
<stop stop-color="#693B93" stop-opacity="0.53"/>
<stop offset="1" stop-color="#693B93"/>
</linearGradient>
<linearGradient id="paint9_linear_121_2" x1="887" y1="202.791" x2="887" y2="224.948" gradientUnits="userSpaceOnUse">
<stop stop-color="#693B93" stop-opacity="0.53"/>
<stop offset="1" stop-color="#693B93"/>
</linearGradient>
<linearGradient id="paint10_linear_121_2" x1="771.5" y1="290.254" x2="771.5" y2="309.496" gradientUnits="userSpaceOnUse">
<stop stop-color="#693B93" stop-opacity="0.53"/>
<stop offset="1" stop-color="#693B93"/>
</linearGradient>
<linearGradient id="paint11_linear_121_2" x1="832.795" y1="222.615" x2="832.795" y2="238.068" gradientUnits="userSpaceOnUse">
<stop stop-color="#693B93" stop-opacity="0.53"/>
<stop offset="1" stop-color="#693B93"/>
</linearGradient>
<linearGradient id="paint12_linear_121_2" x1="724.832" y1="131.025" x2="724.832" y2="138.671" gradientUnits="userSpaceOnUse">
<stop stop-color="#693B93" stop-opacity="0.53"/>
<stop offset="1" stop-color="#693B93"/>
</linearGradient>
<linearGradient id="paint13_linear_121_2" x1="724.835" y1="127.189" x2="724.835" y2="134.825" gradientUnits="userSpaceOnUse">
<stop stop-color="#693B93" stop-opacity="0.53"/>
<stop offset="1" stop-color="#693B93"/>
</linearGradient>
<linearGradient id="paint14_linear_121_2" x1="713.479" y1="127.181" x2="713.479" y2="134.833" gradientUnits="userSpaceOnUse">
<stop stop-color="#693B93" stop-opacity="0.53"/>
<stop offset="1" stop-color="#693B93"/>
</linearGradient>
<linearGradient id="paint15_linear_121_2" x1="713.479" y1="131.032" x2="713.479" y2="138.664" gradientUnits="userSpaceOnUse">
<stop stop-color="#693B93" stop-opacity="0.53"/>
<stop offset="1" stop-color="#693B93"/>
</linearGradient>
<linearGradient id="paint16_linear_121_2" x1="127" y1="192.295" x2="127" y2="209.788" gradientUnits="userSpaceOnUse">
<stop stop-color="#693B93" stop-opacity="0.53"/>
<stop offset="1" stop-color="#693B93"/>
</linearGradient>
<linearGradient id="paint17_linear_121_2" x1="34.4235" y1="260.976" x2="34.4235" y2="263.829" gradientUnits="userSpaceOnUse">
<stop stop-color="#693B93" stop-opacity="0.53"/>
<stop offset="1" stop-color="#693B93"/>
</linearGradient>
<linearGradient id="paint18_linear_121_2" x1="34.5" y1="265.077" x2="34.5" y2="281.308" gradientUnits="userSpaceOnUse">
<stop stop-color="#693B93" stop-opacity="0.53"/>
<stop offset="1" stop-color="#693B93"/>
</linearGradient>
<linearGradient id="paint19_linear_121_2" x1="193" y1="99" x2="193" y2="113.736" gradientUnits="userSpaceOnUse">
<stop stop-color="#693B93" stop-opacity="0.53"/>
<stop offset="1" stop-color="#693B93"/>
</linearGradient>
<linearGradient id="paint20_linear_121_2" x1="88.287" y1="136.318" x2="88.287" y2="151.264" gradientUnits="userSpaceOnUse">
<stop stop-color="#693B93" stop-opacity="0.53"/>
<stop offset="1" stop-color="#693B93"/>
</linearGradient>
<linearGradient id="paint21_linear_121_2" x1="138.857" y1="270.43" x2="138.857" y2="289.089" gradientUnits="userSpaceOnUse">
<stop stop-color="#693B93" stop-opacity="0.53"/>
<stop offset="1" stop-color="#693B93"/>
</linearGradient>
</defs>
</svg>
